<svg width="13" height="12" viewBox="0 0 13 12" fill="none" xmlns="http://www.w3.org/2000/svg">
<path d="M6.75 12C5.92778 12 5.15278 11.8417 4.425 11.525C3.69722 11.2083 3.06111 10.7778 2.51667 10.2333C1.97222 9.68889 1.54167 9.05278 1.225 8.325C0.908333 7.59722 0.75 6.82222 0.75 6C0.75 5.51111 0.805556 5.03611 0.916667 4.575C1.02778 4.11389 1.18889 3.68056 1.4 3.275C1.61111 2.86944 1.86389 2.49167 2.15833 2.14167C2.45278 1.79167 2.78333 1.47778 3.15 1.2L7.68333 5.73333L6.75 6.66667L3.15 3.06667C2.81667 3.46667 2.55556 3.91389 2.36667 4.40833C2.17778 4.90278 2.08333 5.43333 2.08333 6C2.08333 7.28889 2.53889 8.38889 3.45 9.3C4.36111 10.2111 5.46111 10.6667 6.75 10.6667C8.03889 10.6667 9.13889 10.2111 10.05 9.3C10.9611 8.38889 11.4167 7.28889 11.4167 6C11.4167 4.81111 11.0361 3.78611 10.275 2.925C9.51389 2.06389 8.56111 1.55556 7.41667 1.4V2.66667H6.08333V0H6.75C7.57222 0 8.34722 0.158333 9.075 0.475C9.80278 0.791667 10.4389 1.22222 10.9833 1.76667C11.5278 2.31111 11.9583 2.94722 12.275 3.675C12.5917 4.40278 12.75 5.17778 12.75 6C12.75 6.82222 12.5917 7.59722 12.275 8.325C11.9583 9.05278 11.5278 9.68889 10.9833 10.2333C10.4389 10.7778 9.80278 11.2083 9.075 11.525C8.34722 11.8417 7.57222 12 6.75 12ZM3.41667 6.66667C3.22778 6.66667 3.06944 6.60278 2.94167 6.475C2.81389 6.34722 2.75 6.18889 2.75 6C2.75 5.81111 2.81389 5.65278 2.94167 5.525C3.06944 5.39722 3.22778 5.33333 3.41667 5.33333C3.60556 5.33333 3.76389 5.39722 3.89167 5.525C4.01944 5.65278 4.08333 5.81111 4.08333 6C4.08333 6.18889 4.01944 6.34722 3.89167 6.475C3.76389 6.60278 3.60556 6.66667 3.41667 6.66667ZM6.75 10C6.56111 10 6.40278 9.93611 6.275 9.80833C6.14722 9.68056 6.08333 9.52222 6.08333 9.33333C6.08333 9.14444 6.14722 8.98611 6.275 8.85833C6.40278 8.73056 6.56111 8.66667 6.75 8.66667C6.93889 8.66667 7.09722 8.73056 7.225 8.85833C7.35278 8.98611 7.41667 9.14444 7.41667 9.33333C7.41667 9.52222 7.35278 9.68056 7.225 9.80833C7.09722 9.93611 6.93889 10 6.75 10ZM10.0833 6.66667C9.89444 6.66667 9.73611 6.60278 9.60833 6.475C9.48056 6.34722 9.41667 6.18889 9.41667 6C9.41667 5.81111 9.48056 5.65278 9.60833 5.525C9.73611 5.39722 9.89444 5.33333 10.0833 5.33333C10.2722 5.33333 10.4306 5.39722 10.5583 5.525C10.6861 5.65278 10.75 5.81111 10.75 6C10.75 6.18889 10.6861 6.34722 10.5583 6.475C10.4306 6.60278 10.2722 6.66667 10.0833 6.66667Z" fill="#2A2A2A"/>
</svg>
