<svg width="12" height="7" viewBox="0 0 12 7" fill="none" xmlns="http://www.w3.org/2000/svg">
<path d="M6.00005 6.55513C5.86672 6.55513 5.74172 6.53429 5.62505 6.49263C5.50838 6.45096 5.40005 6.38013 5.30005 6.28013L0.700049 1.68013C0.516715 1.49679 0.425049 1.26346 0.425049 0.980127C0.425049 0.696794 0.516715 0.46346 0.700049 0.280127C0.883382 0.0967936 1.11672 0.00512695 1.40005 0.00512695C1.68338 0.00512695 1.91672 0.0967936 2.10005 0.280127L6.00005 4.18013L9.90005 0.280127C10.0834 0.0967936 10.3167 0.00512695 10.6 0.00512695C10.8834 0.00512695 11.1167 0.0967936 11.3 0.280127C11.4834 0.46346 11.575 0.696794 11.575 0.980127C11.575 1.26346 11.4834 1.49679 11.3 1.68013L6.70005 6.28013C6.60005 6.38013 6.49172 6.45096 6.37505 6.49263C6.25838 6.53429 6.13338 6.55513 6.00005 6.55513Z" fill="#E030F6"/>
</svg>
