<svg width="21" height="19" viewBox="0 0 21 19" fill="none" xmlns="http://www.w3.org/2000/svg">
<path d="M10.5 19.0004L9.05 17.7004C7.36667 16.1837 5.975 14.8754 4.875 13.7754C3.775 12.6754 2.9 11.6879 2.25 10.8129C1.6 9.93789 1.14583 9.13372 0.8875 8.40039C0.629167 7.66706 0.5 6.91706 0.5 6.15039C0.5 4.58372 1.025 3.27539 2.075 2.22539C3.125 1.17539 4.43333 0.650391 6 0.650391C6.86667 0.650391 7.69167 0.833724 8.475 1.20039C9.25833 1.56706 9.93333 2.08372 10.5 2.75039C11.0667 2.08372 11.7417 1.56706 12.525 1.20039C13.3083 0.833724 14.1333 0.650391 15 0.650391C16.5667 0.650391 17.875 1.17539 18.925 2.22539C19.975 3.27539 20.5 4.58372 20.5 6.15039C20.5 6.91706 20.3708 7.66706 20.1125 8.40039C19.8542 9.13372 19.4 9.93789 18.75 10.8129C18.1 11.6879 17.225 12.6754 16.125 13.7754C15.025 14.8754 13.6333 16.1837 11.95 17.7004L10.5 19.0004Z" fill="#ED4045"/>
</svg>
