<svg width="21" height="19" viewBox="0 0 21 19" fill="none" xmlns="http://www.w3.org/2000/svg">
<path d="M10.5 18.7997L9.05 17.4997C7.36667 15.983 5.975 14.6747 4.875 13.5747C3.775 12.4747 2.9 11.4872 2.25 10.6122C1.6 9.73721 1.14583 8.93304 0.8875 8.19971C0.629167 7.46637 0.5 6.71637 0.5 5.94971C0.5 4.38304 1.025 3.07471 2.075 2.02471C3.125 0.974707 4.43333 0.449707 6 0.449707C6.86667 0.449707 7.69167 0.63304 8.475 0.999707C9.25833 1.36637 9.93333 1.88304 10.5 2.54971C11.0667 1.88304 11.7417 1.36637 12.525 0.999707C13.3083 0.63304 14.1333 0.449707 15 0.449707C16.5667 0.449707 17.875 0.974707 18.925 2.02471C19.975 3.07471 20.5 4.38304 20.5 5.94971C20.5 6.71637 20.3708 7.46637 20.1125 8.19971C19.8542 8.93304 19.4 9.73721 18.75 10.6122C18.1 11.4872 17.225 12.4747 16.125 13.5747C15.025 14.6747 13.6333 15.983 11.95 17.4997L10.5 18.7997ZM10.5 16.0997C12.1 14.6664 13.4167 13.4372 14.45 12.4122C15.4833 11.3872 16.3 10.4955 16.9 9.73721C17.5 8.97887 17.9167 8.30387 18.15 7.71221C18.3833 7.12054 18.5 6.53304 18.5 5.94971C18.5 4.94971 18.1667 4.11637 17.5 3.44971C16.8333 2.78304 16 2.44971 15 2.44971C14.2167 2.44971 13.4917 2.67054 12.825 3.11221C12.1583 3.55387 11.7 4.11637 11.45 4.79971H9.55C9.3 4.11637 8.84167 3.55387 8.175 3.11221C7.50833 2.67054 6.78333 2.44971 6 2.44971C5 2.44971 4.16667 2.78304 3.5 3.44971C2.83333 4.11637 2.5 4.94971 2.5 5.94971C2.5 6.53304 2.61667 7.12054 2.85 7.71221C3.08333 8.30387 3.5 8.97887 4.1 9.73721C4.7 10.4955 5.51667 11.3872 6.55 12.4122C7.58333 13.4372 8.9 14.6664 10.5 16.0997Z" fill="#708192"/>
</svg>
