<svg width="16" height="17" viewBox="0 0 16 17" fill="none" xmlns="http://www.w3.org/2000/svg">
<path d="M8 8.58016C6.9 8.58016 5.95833 8.18849 5.175 7.40516C4.39167 6.62183 4 5.68016 4 4.58016C4 3.48016 4.39167 2.53849 5.175 1.75516C5.95833 0.971825 6.9 0.580158 8 0.580158C9.1 0.580158 10.0417 0.971825 10.825 1.75516C11.6083 2.53849 12 3.48016 12 4.58016C12 5.68016 11.6083 6.62183 10.825 7.40516C10.0417 8.18849 9.1 8.58016 8 8.58016ZM0 16.5802V13.7802C0 13.2135 0.145833 12.6927 0.4375 12.2177C0.729167 11.7427 1.11667 11.3802 1.6 11.1302C2.63333 10.6135 3.68333 10.226 4.75 9.96766C5.81667 9.70932 6.9 9.58016 8 9.58016C9.1 9.58016 10.1833 9.70932 11.25 9.96766C12.3167 10.226 13.3667 10.6135 14.4 11.1302C14.8833 11.3802 15.2708 11.7427 15.5625 12.2177C15.8542 12.6927 16 13.2135 16 13.7802V16.5802H0ZM2 14.5802H14V13.7802C14 13.5968 13.9542 13.4302 13.8625 13.2802C13.7708 13.1302 13.65 13.0135 13.5 12.9302C12.6 12.4802 11.6917 12.1427 10.775 11.9177C9.85833 11.6927 8.93333 11.5802 8 11.5802C7.06667 11.5802 6.14167 11.6927 5.225 11.9177C4.30833 12.1427 3.4 12.4802 2.5 12.9302C2.35 13.0135 2.22917 13.1302 2.1375 13.2802C2.04583 13.4302 2 13.5968 2 13.7802V14.5802ZM8 6.58016C8.55 6.58016 9.02083 6.38433 9.4125 5.99266C9.80417 5.60099 10 5.13016 10 4.58016C10 4.03016 9.80417 3.55932 9.4125 3.16766C9.02083 2.77599 8.55 2.58016 8 2.58016C7.45 2.58016 6.97917 2.77599 6.5875 3.16766C6.19583 3.55932 6 4.03016 6 4.58016C6 5.13016 6.19583 5.60099 6.5875 5.99266C6.97917 6.38433 7.45 6.58016 8 6.58016Z" fill="#E030F6"/>
</svg>
