<svg width="12" height="8" viewBox="0 0 12 8" fill="none" xmlns="http://www.w3.org/2000/svg">
<path d="M6.00005 3.37998L2.10005 7.27998C1.91672 7.46331 1.68338 7.55498 1.40005 7.55498C1.11672 7.55498 0.883382 7.46331 0.700049 7.27998C0.516715 7.09665 0.425049 6.86331 0.425049 6.57998C0.425049 6.29665 0.516715 6.06331 0.700049 5.87998L5.30005 1.27998C5.50005 1.07998 5.73338 0.97998 6.00005 0.97998C6.26672 0.97998 6.50005 1.07998 6.70005 1.27998L11.3 5.87998C11.4834 6.06331 11.575 6.29665 11.575 6.57998C11.575 6.86331 11.4834 7.09665 11.3 7.27998C11.1167 7.46331 10.8834 7.55498 10.6 7.55498C10.3167 7.55498 10.0834 7.46331 9.90005 7.27998L6.00005 3.37998Z" fill="#E030F6"/>
</svg>
